<mxfile host="app.diagrams.net" modified="2024-04-02T15:10:35.375Z" agent="Mozilla/5.0 (Macintosh; Intel Mac OS X 10_15_7) AppleWebKit/605.1.15 (KHTML, like Gecko) Version/16.6 Safari/605.1.15" etag="-OcyYbBNpYvHvipz3L4U" version="24.0.7" type="device">
  <diagram name="Page-1" id="ZOuL5xsMiOxqUGBmQ5yk">
    <mxGraphModel dx="1765" dy="959" grid="1" gridSize="10" guides="1" tooltips="1" connect="1" arrows="1" fold="1" page="1" pageScale="1" pageWidth="827" pageHeight="1169" math="0" shadow="0">
      <root>
        <mxCell id="0" />
        <mxCell id="1" parent="0" />
        <mxCell id="idyytgoSw99__6BI9T1v-10" value="style-guide" style="swimlane;horizontal=0;whiteSpace=wrap;html=1;" vertex="1" parent="1">
          <mxGeometry x="120" y="120" width="2270" height="290" as="geometry" />
        </mxCell>
        <mxCell id="idyytgoSw99__6BI9T1v-1" value="Merge event" style="points=[[0.145,0.145,0],[0.5,0,0],[0.855,0.145,0],[1,0.5,0],[0.855,0.855,0],[0.5,1,0],[0.145,0.855,0],[0,0.5,0]];shape=mxgraph.bpmn.event;html=1;verticalLabelPosition=bottom;labelBackgroundColor=#ffffff;verticalAlign=top;align=center;perimeter=ellipsePerimeter;outlineConnect=0;aspect=fixed;outline=standard;symbol=message;" vertex="1" parent="idyytgoSw99__6BI9T1v-10">
          <mxGeometry x="325" y="125" width="40" height="40" as="geometry" />
        </mxCell>
        <mxCell id="idyytgoSw99__6BI9T1v-14" style="edgeStyle=orthogonalEdgeStyle;rounded=0;orthogonalLoop=1;jettySize=auto;html=1;" edge="1" parent="idyytgoSw99__6BI9T1v-10" source="idyytgoSw99__6BI9T1v-12" target="idyytgoSw99__6BI9T1v-13">
          <mxGeometry relative="1" as="geometry" />
        </mxCell>
        <mxCell id="idyytgoSw99__6BI9T1v-12" value="PR" style="points=[[0.145,0.145,0],[0.5,0,0],[0.855,0.145,0],[1,0.5,0],[0.855,0.855,0],[0.5,1,0],[0.145,0.855,0],[0,0.5,0]];shape=mxgraph.bpmn.event;html=1;verticalLabelPosition=bottom;labelBackgroundColor=#ffffff;verticalAlign=top;align=center;perimeter=ellipsePerimeter;outlineConnect=0;aspect=fixed;outline=standard;symbol=message;" vertex="1" parent="idyytgoSw99__6BI9T1v-10">
          <mxGeometry x="70" y="125" width="40" height="40" as="geometry" />
        </mxCell>
        <mxCell id="idyytgoSw99__6BI9T1v-15" style="edgeStyle=orthogonalEdgeStyle;rounded=0;orthogonalLoop=1;jettySize=auto;html=1;" edge="1" parent="idyytgoSw99__6BI9T1v-10" source="idyytgoSw99__6BI9T1v-13" target="idyytgoSw99__6BI9T1v-1">
          <mxGeometry relative="1" as="geometry" />
        </mxCell>
        <mxCell id="idyytgoSw99__6BI9T1v-13" value="approval" style="points=[[0.25,0,0],[0.5,0,0],[0.75,0,0],[1,0.25,0],[1,0.5,0],[1,0.75,0],[0.75,1,0],[0.5,1,0],[0.25,1,0],[0,0.75,0],[0,0.5,0],[0,0.25,0]];shape=mxgraph.bpmn.task;whiteSpace=wrap;rectStyle=rounded;size=10;html=1;container=1;expand=0;collapsible=0;taskMarker=abstract;" vertex="1" parent="idyytgoSw99__6BI9T1v-10">
          <mxGeometry x="170" y="115" width="90" height="60" as="geometry" />
        </mxCell>
        <mxCell id="idyytgoSw99__6BI9T1v-32" value="" style="edgeStyle=orthogonalEdgeStyle;rounded=0;orthogonalLoop=1;jettySize=auto;html=1;" edge="1" parent="idyytgoSw99__6BI9T1v-10" source="idyytgoSw99__6BI9T1v-1" target="idyytgoSw99__6BI9T1v-31">
          <mxGeometry relative="1" as="geometry">
            <mxPoint x="600" y="265" as="targetPoint" />
            <mxPoint x="485" y="265" as="sourcePoint" />
          </mxGeometry>
        </mxCell>
        <mxCell id="idyytgoSw99__6BI9T1v-31" value="Merged to Release (x) Branch" style="points=[[0.25,0,0],[0.5,0,0],[0.75,0,0],[1,0.25,0],[1,0.5,0],[1,0.75,0],[0.75,1,0],[0.5,1,0],[0.25,1,0],[0,0.75,0],[0,0.5,0],[0,0.25,0]];shape=mxgraph.bpmn.task;whiteSpace=wrap;rectStyle=rounded;size=10;html=1;container=1;expand=0;collapsible=0;taskMarker=abstract;" vertex="1" parent="idyytgoSw99__6BI9T1v-10">
          <mxGeometry x="440" y="195" width="90" height="60" as="geometry" />
        </mxCell>
        <mxCell id="idyytgoSw99__6BI9T1v-36" value="Merge event" style="points=[[0.145,0.145,0],[0.5,0,0],[0.855,0.145,0],[1,0.5,0],[0.855,0.855,0],[0.5,1,0],[0.145,0.855,0],[0,0.5,0]];shape=mxgraph.bpmn.event;html=1;verticalLabelPosition=bottom;labelBackgroundColor=#ffffff;verticalAlign=top;align=center;perimeter=ellipsePerimeter;outlineConnect=0;aspect=fixed;outline=standard;symbol=message;" vertex="1" parent="idyytgoSw99__6BI9T1v-10">
          <mxGeometry x="325" y="45" width="40" height="40" as="geometry" />
        </mxCell>
        <mxCell id="idyytgoSw99__6BI9T1v-37" style="edgeStyle=orthogonalEdgeStyle;rounded=0;orthogonalLoop=1;jettySize=auto;html=1;" edge="1" parent="idyytgoSw99__6BI9T1v-10" source="idyytgoSw99__6BI9T1v-38" target="idyytgoSw99__6BI9T1v-40">
          <mxGeometry relative="1" as="geometry" />
        </mxCell>
        <mxCell id="idyytgoSw99__6BI9T1v-38" value="PR" style="points=[[0.145,0.145,0],[0.5,0,0],[0.855,0.145,0],[1,0.5,0],[0.855,0.855,0],[0.5,1,0],[0.145,0.855,0],[0,0.5,0]];shape=mxgraph.bpmn.event;html=1;verticalLabelPosition=bottom;labelBackgroundColor=#ffffff;verticalAlign=top;align=center;perimeter=ellipsePerimeter;outlineConnect=0;aspect=fixed;outline=standard;symbol=message;" vertex="1" parent="idyytgoSw99__6BI9T1v-10">
          <mxGeometry x="70" y="45" width="40" height="40" as="geometry" />
        </mxCell>
        <mxCell id="idyytgoSw99__6BI9T1v-39" style="edgeStyle=orthogonalEdgeStyle;rounded=0;orthogonalLoop=1;jettySize=auto;html=1;" edge="1" parent="idyytgoSw99__6BI9T1v-10" source="idyytgoSw99__6BI9T1v-40" target="idyytgoSw99__6BI9T1v-36">
          <mxGeometry relative="1" as="geometry" />
        </mxCell>
        <mxCell id="idyytgoSw99__6BI9T1v-40" value="approval" style="points=[[0.25,0,0],[0.5,0,0],[0.75,0,0],[1,0.25,0],[1,0.5,0],[1,0.75,0],[0.75,1,0],[0.5,1,0],[0.25,1,0],[0,0.75,0],[0,0.5,0],[0,0.25,0]];shape=mxgraph.bpmn.task;whiteSpace=wrap;rectStyle=rounded;size=10;html=1;container=1;expand=0;collapsible=0;taskMarker=abstract;" vertex="1" parent="idyytgoSw99__6BI9T1v-10">
          <mxGeometry x="170" y="35" width="90" height="60" as="geometry" />
        </mxCell>
        <mxCell id="idyytgoSw99__6BI9T1v-41" style="edgeStyle=orthogonalEdgeStyle;rounded=0;orthogonalLoop=1;jettySize=auto;html=1;entryX=0.5;entryY=0;entryDx=0;entryDy=0;entryPerimeter=0;" edge="1" parent="idyytgoSw99__6BI9T1v-10" source="idyytgoSw99__6BI9T1v-36" target="idyytgoSw99__6BI9T1v-31">
          <mxGeometry relative="1" as="geometry" />
        </mxCell>
        <mxCell id="idyytgoSw99__6BI9T1v-94" value="Tag with version" style="points=[[0.25,0,0],[0.5,0,0],[0.75,0,0],[1,0.25,0],[1,0.5,0],[1,0.75,0],[0.75,1,0],[0.5,1,0],[0.25,1,0],[0,0.75,0],[0,0.5,0],[0,0.25,0]];shape=mxgraph.bpmn.task;whiteSpace=wrap;rectStyle=rounded;size=10;html=1;container=1;expand=0;collapsible=0;taskMarker=abstract;" vertex="1" parent="idyytgoSw99__6BI9T1v-10">
          <mxGeometry x="770" y="195" width="100" height="60" as="geometry" />
        </mxCell>
        <mxCell id="idyytgoSw99__6BI9T1v-87" value="Merge to main" style="points=[[0.25,0,0],[0.5,0,0],[0.75,0,0],[1,0.25,0],[1,0.5,0],[1,0.75,0],[0.75,1,0],[0.5,1,0],[0.25,1,0],[0,0.75,0],[0,0.5,0],[0,0.25,0]];shape=mxgraph.bpmn.task;whiteSpace=wrap;rectStyle=rounded;size=10;html=1;container=1;expand=0;collapsible=0;taskMarker=abstract;" vertex="1" parent="idyytgoSw99__6BI9T1v-10">
          <mxGeometry x="607" y="195" width="100" height="60" as="geometry" />
        </mxCell>
        <mxCell id="idyytgoSw99__6BI9T1v-95" style="edgeStyle=orthogonalEdgeStyle;rounded=0;orthogonalLoop=1;jettySize=auto;html=1;entryX=0;entryY=0.5;entryDx=0;entryDy=0;entryPerimeter=0;" edge="1" parent="idyytgoSw99__6BI9T1v-10" source="idyytgoSw99__6BI9T1v-31" target="idyytgoSw99__6BI9T1v-87">
          <mxGeometry relative="1" as="geometry" />
        </mxCell>
        <mxCell id="idyytgoSw99__6BI9T1v-96" style="edgeStyle=orthogonalEdgeStyle;rounded=0;orthogonalLoop=1;jettySize=auto;html=1;entryX=0;entryY=0.5;entryDx=0;entryDy=0;entryPerimeter=0;" edge="1" parent="idyytgoSw99__6BI9T1v-10" source="idyytgoSw99__6BI9T1v-87" target="idyytgoSw99__6BI9T1v-94">
          <mxGeometry relative="1" as="geometry" />
        </mxCell>
        <mxCell id="idyytgoSw99__6BI9T1v-16" value="github action" style="points=[[0.25,0,0],[0.5,0,0],[0.75,0,0],[1,0.25,0],[1,0.5,0],[1,0.75,0],[0.75,1,0],[0.5,1,0],[0.25,1,0],[0,0.75,0],[0,0.5,0],[0,0.25,0]];shape=mxgraph.bpmn.task;whiteSpace=wrap;rectStyle=rounded;size=10;html=1;container=1;expand=0;collapsible=0;taskMarker=abstract;" vertex="1" parent="idyytgoSw99__6BI9T1v-10">
          <mxGeometry x="930" y="195" width="150" height="60" as="geometry" />
        </mxCell>
        <mxCell id="idyytgoSw99__6BI9T1v-35" style="edgeStyle=orthogonalEdgeStyle;rounded=0;orthogonalLoop=1;jettySize=auto;html=1;entryX=0;entryY=0.5;entryDx=0;entryDy=0;entryPerimeter=0;exitX=1;exitY=0.5;exitDx=0;exitDy=0;exitPerimeter=0;" edge="1" parent="idyytgoSw99__6BI9T1v-10" source="idyytgoSw99__6BI9T1v-94" target="idyytgoSw99__6BI9T1v-16">
          <mxGeometry relative="1" as="geometry">
            <mxPoint x="990" y="225" as="sourcePoint" />
          </mxGeometry>
        </mxCell>
        <mxCell id="idyytgoSw99__6BI9T1v-11" value="robotframework-guides" style="swimlane;horizontal=0;whiteSpace=wrap;html=1;" vertex="1" parent="1">
          <mxGeometry x="120" y="410" width="2240" height="230" as="geometry" />
        </mxCell>
        <mxCell id="idyytgoSw99__6BI9T1v-98" value="" style="edgeStyle=orthogonalEdgeStyle;rounded=0;orthogonalLoop=1;jettySize=auto;html=1;exitX=1;exitY=0.5;exitDx=0;exitDy=0;exitPerimeter=0;" edge="1" parent="idyytgoSw99__6BI9T1v-11" source="idyytgoSw99__6BI9T1v-105" target="idyytgoSw99__6BI9T1v-97">
          <mxGeometry relative="1" as="geometry">
            <Array as="points">
              <mxPoint x="1271" y="80" />
            </Array>
          </mxGeometry>
        </mxCell>
        <mxCell id="idyytgoSw99__6BI9T1v-100" value="" style="edgeStyle=orthogonalEdgeStyle;rounded=0;orthogonalLoop=1;jettySize=auto;html=1;" edge="1" parent="idyytgoSw99__6BI9T1v-11" source="idyytgoSw99__6BI9T1v-97" target="idyytgoSw99__6BI9T1v-99">
          <mxGeometry relative="1" as="geometry" />
        </mxCell>
        <mxCell id="idyytgoSw99__6BI9T1v-97" value="Check for layout in docusaurus" style="points=[[0.25,0,0],[0.5,0,0],[0.75,0,0],[1,0.25,0],[1,0.5,0],[1,0.75,0],[0.75,1,0],[0.5,1,0],[0.25,1,0],[0,0.75,0],[0,0.5,0],[0,0.25,0]];shape=mxgraph.bpmn.task;whiteSpace=wrap;rectStyle=rounded;size=10;html=1;container=1;expand=0;collapsible=0;taskMarker=abstract;" vertex="1" parent="idyytgoSw99__6BI9T1v-11">
          <mxGeometry x="1330" y="50" width="150" height="60" as="geometry" />
        </mxCell>
        <mxCell id="idyytgoSw99__6BI9T1v-99" value="Tech Check&lt;div&gt;&lt;font face=&quot;Courier New&quot;&gt;npm build&lt;/font&gt;&lt;/div&gt;&lt;div&gt;&lt;font face=&quot;Courier New&quot;&gt;npm serve&lt;/font&gt;&lt;/div&gt;&lt;div&gt;Final check&lt;/div&gt;" style="points=[[0.25,0,0],[0.5,0,0],[0.75,0,0],[1,0.25,0],[1,0.5,0],[1,0.75,0],[0.75,1,0],[0.5,1,0],[0.25,1,0],[0,0.75,0],[0,0.5,0],[0,0.25,0]];shape=mxgraph.bpmn.task;whiteSpace=wrap;rectStyle=rounded;size=10;html=1;container=1;expand=0;collapsible=0;taskMarker=abstract;" vertex="1" parent="idyytgoSw99__6BI9T1v-11">
          <mxGeometry x="1550" y="50" width="109" height="60" as="geometry" />
        </mxCell>
        <mxCell id="idyytgoSw99__6BI9T1v-104" value="" style="edgeStyle=orthogonalEdgeStyle;rounded=0;orthogonalLoop=1;jettySize=auto;html=1;" edge="1" parent="idyytgoSw99__6BI9T1v-11" source="idyytgoSw99__6BI9T1v-101" target="idyytgoSw99__6BI9T1v-103">
          <mxGeometry relative="1" as="geometry" />
        </mxCell>
        <mxCell id="idyytgoSw99__6BI9T1v-101" value="Approval" style="points=[[0.25,0,0],[0.5,0,0],[0.75,0,0],[1,0.25,0],[1,0.5,0],[1,0.75,0],[0.75,1,0],[0.5,1,0],[0.25,1,0],[0,0.75,0],[0,0.5,0],[0,0.25,0]];shape=mxgraph.bpmn.task;whiteSpace=wrap;rectStyle=rounded;size=10;html=1;container=1;expand=0;collapsible=0;taskMarker=abstract;" vertex="1" parent="idyytgoSw99__6BI9T1v-11">
          <mxGeometry x="1918" y="50" width="100" height="60" as="geometry" />
        </mxCell>
        <mxCell id="idyytgoSw99__6BI9T1v-103" value="Merge" style="points=[[0.25,0,0],[0.5,0,0],[0.75,0,0],[1,0.25,0],[1,0.5,0],[1,0.75,0],[0.75,1,0],[0.5,1,0],[0.25,1,0],[0,0.75,0],[0,0.5,0],[0,0.25,0]];shape=mxgraph.bpmn.task;whiteSpace=wrap;rectStyle=rounded;size=10;html=1;container=1;expand=0;collapsible=0;taskMarker=abstract;" vertex="1" parent="idyytgoSw99__6BI9T1v-11">
          <mxGeometry x="2090" y="50" width="100" height="60" as="geometry" />
        </mxCell>
        <mxCell id="idyytgoSw99__6BI9T1v-105" value="Create branch with name: style-guide-(version)" style="points=[[0.25,0,0],[0.5,0,0],[0.75,0,0],[1,0.25,0],[1,0.5,0],[1,0.75,0],[0.75,1,0],[0.5,1,0],[0.25,1,0],[0,0.75,0],[0,0.5,0],[0,0.25,0]];shape=mxgraph.bpmn.task;whiteSpace=wrap;rectStyle=rounded;size=10;html=1;container=1;expand=0;collapsible=0;taskMarker=abstract;" vertex="1" parent="idyytgoSw99__6BI9T1v-11">
          <mxGeometry x="1120.5" y="50" width="150" height="60" as="geometry" />
        </mxCell>
        <mxCell id="idyytgoSw99__6BI9T1v-106" value="" style="edgeStyle=orthogonalEdgeStyle;rounded=0;orthogonalLoop=1;jettySize=auto;html=1;" edge="1" parent="idyytgoSw99__6BI9T1v-11" source="idyytgoSw99__6BI9T1v-107" target="idyytgoSw99__6BI9T1v-101">
          <mxGeometry relative="1" as="geometry">
            <mxPoint x="1810" y="490" as="sourcePoint" />
            <mxPoint x="1770" y="80" as="targetPoint" />
          </mxGeometry>
        </mxCell>
        <mxCell id="idyytgoSw99__6BI9T1v-108" value="" style="edgeStyle=orthogonalEdgeStyle;rounded=0;orthogonalLoop=1;jettySize=auto;html=1;" edge="1" parent="idyytgoSw99__6BI9T1v-11" source="idyytgoSw99__6BI9T1v-99" target="idyytgoSw99__6BI9T1v-107">
          <mxGeometry relative="1" as="geometry">
            <mxPoint x="1810" y="490" as="sourcePoint" />
            <mxPoint x="2120" y="490" as="targetPoint" />
          </mxGeometry>
        </mxCell>
        <mxCell id="idyytgoSw99__6BI9T1v-107" value="Create PR with name branch" style="points=[[0.25,0,0],[0.5,0,0],[0.75,0,0],[1,0.25,0],[1,0.5,0],[1,0.75,0],[0.75,1,0],[0.5,1,0],[0.25,1,0],[0,0.75,0],[0,0.5,0],[0,0.25,0]];shape=mxgraph.bpmn.task;whiteSpace=wrap;rectStyle=rounded;size=10;html=1;container=1;expand=0;collapsible=0;taskMarker=user;" vertex="1" parent="idyytgoSw99__6BI9T1v-11">
          <mxGeometry x="1730" y="45" width="120" height="70" as="geometry" />
        </mxCell>
        <mxCell id="idyytgoSw99__6BI9T1v-19" style="edgeStyle=orthogonalEdgeStyle;rounded=0;orthogonalLoop=1;jettySize=auto;html=1;entryX=0;entryY=0.5;entryDx=0;entryDy=0;entryPerimeter=0;" edge="1" parent="1" source="idyytgoSw99__6BI9T1v-16" target="idyytgoSw99__6BI9T1v-105">
          <mxGeometry relative="1" as="geometry" />
        </mxCell>
      </root>
    </mxGraphModel>
  </diagram>
</mxfile>
